<svg width="512" height="512" viewBox="0 0 512 512" fill="none" xmlns="http://www.w3.org/2000/svg">
<rect width="512" height="512" rx="256" fill="#FFAA00"/>
<path fill-rule="evenodd" clip-rule="evenodd" d="M223.457 174.08H288.543C292.194 174.08 294.639 176.379 295.415 179.331L303.694 210.696C304.598 214.136 302.19 219.025 297.028 219.071H214.965C209.804 219.025 207.396 214.136 208.3 210.696L216.579 179.331C217.361 176.379 219.799 174.08 223.451 174.08H223.457ZM329.174 292.929H394.261C397.912 292.929 400.356 295.227 401.133 298.179L409.412 329.545C410.321 332.985 407.907 337.874 402.746 337.92H320.683C315.521 337.874 313.113 332.985 314.017 329.545L322.296 298.179C323.073 295.233 325.517 292.929 329.168 292.929H329.174ZM117.739 292.929H182.826C186.477 292.929 188.921 295.227 189.697 298.179L197.977 329.545C198.886 332.985 196.472 337.874 191.311 337.92H109.254C104.092 337.874 101.678 332.985 102.588 329.545L110.867 298.179C111.644 295.233 114.088 292.929 117.739 292.929ZM223.457 292.929H288.543C292.194 292.929 294.639 295.227 295.415 298.179L303.694 329.545C304.598 332.985 302.19 337.874 297.028 337.92H214.965C209.804 337.874 207.396 332.985 208.3 329.545L216.579 298.179C217.361 295.233 219.799 292.929 223.451 292.929H223.457ZM276.291 233.545H341.378C345.029 233.545 347.467 235.849 348.25 238.795L356.529 270.161C357.432 273.6 355.024 278.49 349.863 278.536H267.8C262.638 278.49 260.23 273.6 261.134 270.161L269.413 238.795C270.19 235.843 272.634 233.545 276.285 233.545H276.291ZM170.574 233.545H235.666C239.317 233.545 241.756 235.849 242.538 238.795L250.817 270.161C251.727 273.6 249.313 278.49 244.151 278.536H162.088C156.927 278.49 154.519 273.6 155.423 270.161L163.702 238.795C164.478 235.843 166.922 233.545 170.574 233.545Z" fill="white"/>
</svg>
